<svg xmlns="http://www.w3.org/2000/svg" viewBox="0 0 30 30"><path fill="#fff" d="M29.9 15c0 8.3-6.7 15-15 15s-14.9-6.8-14.9-15 6.7-15 15-15 14.9 6.7 14.9 15zm-6.2-6.3c0-1.4-1.1-2.5-2.5-2.5h-12.5c-1.4 0-2.5 1.1-2.5 2.5v12.5c0 1.4 1.1 2.5 2.5 2.5h12.5c1.4 0 2.5-1.1 2.5-2.5v-12.5zm-3.8 6.3c0 2.7-2.2 5-5 5s-5-2.2-5-5c0-.4 0-.8.1-1.2h-2v7.5c0 .3.3.6.6.6h12.5c.3 0 .6-.3.6-.6v-7.5h-2c.2.3.2.7.2 1.2zm-4.9 3.1c1.7 0 3.1-1.4 3.1-3.1s-1.4-3.1-3.1-3.1-3.1 1.4-3.1 3.1 1.3 3.1 3.1 3.1zm6.2-10h-1.9c-.4 0-.6.3-.6.6v1.9c0 .4.3.6.6.6h1.9c.3 0 .6-.3.6-.6v-1.9c0-.3-.3-.6-.6-.6z"/></svg>