<svg xmlns="http://www.w3.org/2000/svg" viewBox="0 0 60 60" width="64" height="64"><ellipse fill="#87A63E" cx="30" cy="30.1" rx="30" ry="29.9"/><path fill="#fff" d="M38 10.8c0 .2-.6.7-1.8 1.4s-2.8 1.7-4.8 3c-1.7 1.1-3.2 2.4-4.6 4.1-1.4 1.7-2.1 3.3-2.1 5 0 .2.1.4.3.6.2.2.4.2.6.2s.4 0 .6-.1l.6-.1c1.6 0 3 .7 4.1 2.1 1.2 1.4 1.7 3 1.7 5 0 3.3-1 6-3.1 8.2s-4.4 3.2-7.2 3.2c-2.7 0-4.9-.9-6.7-2.7s-2.7-4.2-2.7-7.1c0-4.1 1-7.7 3-10.8s4.4-5.9 7.2-8.3c2.7-2.2 5.3-4 7.8-5.2 2.6-1.2 4.1-1.9 4.7-2.1.4-.1.8.4 1.3 1.4.8 1.1 1.1 1.8 1.1 2.2zm17.5 4.5c-1.7 1.1-3.2 2.4-4.6 4.1-1.4 1.7-2.1 3.3-2.1 5 0 .2.1.4.3.6s.4.2.6.2c.2 0 .4 0 .6-.1l.6-.1c1.6 0 3 .7 4.1 2.1 1.2 1.4 1.7 3 1.7 5 0 3.3-1 6-3.1 8.2s-4.4 3.2-7.2 3.2c-2.7 0-4.9-.9-6.7-2.7s-2.7-4.2-2.7-7.1c0-4.1 1-7.7 3-10.8s4.4-5.9 7.2-8.3c2.7-2.2 5.3-4 7.8-5.2 2.8-1.3 2.4 4.6.5 5.9z"/></svg>